<svg xmlns="http://www.w3.org/2000/svg" width="88" height="36" fill="none"><g fill="#000" clip-path="url(#a)"><path d="M6.782 3.867c-1.807 0-3.346.554-4.581 1.647C.78 6.772-.003 8.606-.003 10.68a6.572 6.572 0 0 0 2.028 4.874 7.33 7.33 0 0 0 8.184 1.058l.062-.032v-3.752l-.19.174a3.952 3.952 0 0 1-2.694 1.065c-2.041 0-3.523-1.443-3.523-3.436 0-1.697 1.054-3.408 3.406-3.408a3.956 3.956 0 0 1 2.81 1.067l.192.177V4.662l-.064-.032a7.56 7.56 0 0 0-3.425-.763Zm13.421-.001a3.942 3.942 0 0 0-2.133.564 4.14 4.14 0 0 0-1.388 1.4V4.272H12.93v12.727h3.752V10.88c0-.94.05-1.922.666-2.699.514-.644 1.27-.969 2.25-.969a2.531 2.531 0 0 1 1.58.442l.151.106.502-3.567-.09-.032a4.458 4.458 0 0 0-1.538-.296Zm8.827.001c-1.988 0-3.555.589-4.785 1.796-1.288 1.285-1.94 2.964-1.94 4.987 0 2.077.655 3.701 2 4.961 1.282 1.224 2.828 1.792 4.87 1.792 4.038 0 5.65-2.486 6.253-3.968l.055-.133-3.454-.554-.04.069a3.106 3.106 0 0 1-2.815 1.587c-1.39 0-2.112-.712-2.419-1.145a3.505 3.505 0 0 1-.581-1.924h9.35v-.403c0-1.354-.158-3.342-1.528-4.98-1.157-1.37-2.827-2.085-4.966-2.085Zm2.92 4.994h-5.639a2.884 2.884 0 0 1 5.64 0Zm15.243-3.223c-.884-1.175-2.194-1.77-3.894-1.77-3.665 0-6.322 2.84-6.322 6.754 0 3.915 2.73 6.788 6.491 6.788a4.532 4.532 0 0 0 3.725-1.79v1.386h3.75V4.273h-3.75v1.365Zm.346 4.984c0 1.959-1.439 3.436-3.35 3.436-1.91 0-3.348-1.475-3.348-3.436 0-1.96 1.409-3.408 3.349-3.408 1.94 0 3.349 1.434 3.349 3.408ZM58.497 0h-3.752v4.272H53.36v3.23h1.386v9.497h3.752V7.502h2.424v-3.23h-2.424V0Zm15.811 5.658c-1.294-1.188-3.019-1.79-5.129-1.79-2.11 0-3.834.602-5.128 1.79a6.848 6.848 0 0 0 0 9.956c1.294 1.186 3.019 1.789 5.129 1.789 2.11 0 3.836-.603 5.128-1.79a6.85 6.85 0 0 0 0-9.955Zm-1.72 4.992a3.408 3.408 0 1 1-3.408-3.436 3.372 3.372 0 0 1 3.408 3.436Zm14.701-6.488a4.469 4.469 0 0 0-1.54-.296 3.942 3.942 0 0 0-2.132.564 4.157 4.157 0 0 0-1.39 1.4V4.272h-3.75v12.727h3.745V10.88c0-.94.053-1.922.669-2.699.513-.644 1.269-.969 2.25-.969a2.52 2.52 0 0 1 1.577.442l.154.106.502-3.567-.085-.032ZM37.627 35.393h-4.123a.516.516 0 0 1-.511-.577l.687-5.759a15.9 15.9 0 0 0 .17-2.089c0-.566-.127-.98-.383-1.267a1.574 1.574 0 0 0-1.145-.396c-.66 0-1.118.172-1.487.559-.646.699-.793 1.922-.861 2.52l-.745 6.563a.516.516 0 0 1-.513.458h-4.123a.517.517 0 0 1-.511-.575l1.571-13.311a.518.518 0 0 1 .514-.458h4.123a.516.516 0 0 1 .51.586l-.011.08c.201-.143.41-.274.625-.394 1.054-.584 1.876-.63 2.767-.63 1.036 0 2.545.133 3.686 1.288 1.14 1.154 1.235 2.549 1.235 3.525a21.69 21.69 0 0 1-.204 2.597l-.772 6.831a.515.515 0 0 1-.5.45Zm-3.54-1.033h3.08l.72-6.377c.116-.822.182-1.65.198-2.479 0-.795-.096-1.949-.94-2.801-.842-.852-2.027-.98-2.95-.98-.772 0-1.427.036-2.268.501a5.62 5.62 0 0 0-1.44 1.145.516.516 0 0 1-.894-.414l.12-.877h-3.07L25.18 34.36h3.08l.686-6.11c.083-.698.257-2.145 1.146-3.096a2.929 2.929 0 0 1 2.238-.882 2.533 2.533 0 0 1 1.887.726c.447.497.66 1.145.66 1.968-.01.74-.07 1.48-.176 2.213l-.614 5.181Zm14.384 1.48c-1.72 0-3.921-.245-5.7-2.165a7.422 7.422 0 0 1-1.88-5.04c0-2.164.804-4.212 2.21-5.616 1.504-1.532 3.776-2.403 6.23-2.403 2.25 0 4.39.83 5.726 2.218a6.964 6.964 0 0 1 1.86 4.863c0 2.174-.823 4.352-2.2 5.813-1.962 2.064-4.367 2.33-6.246 2.33Zm.86-14.202c-2.18 0-4.184.77-5.498 2.112-1.22 1.216-1.913 2.998-1.913 4.893a6.384 6.384 0 0 0 1.603 4.334c1.508 1.626 3.436 1.832 4.944 1.832 1.775 0 3.814-.229 5.497-2.016 1.2-1.28 1.92-3.19 1.92-5.108a5.903 5.903 0 0 0-1.574-4.15c-1.143-1.19-3.012-1.9-4.98-1.9v.003Zm-.63 10.564c-1.446 0-2.26-.668-2.617-1.067a3.924 3.924 0 0 1-.96-2.611 4.42 4.42 0 0 1 1.31-3.207 3.855 3.855 0 0 1 5.233-.078 3.73 3.73 0 0 1 1.005 2.655c0 1.246-.458 2.442-1.21 3.207a3.894 3.894 0 0 1-2.762 1.1v.001Zm.373-6.924a2.834 2.834 0 0 0-1.934.783 3.377 3.377 0 0 0-.985 2.463 2.881 2.881 0 0 0 .688 1.921c.242.273.803.727 1.848.727a2.863 2.863 0 0 0 2.041-.807c.559-.56.905-1.507.905-2.47a2.694 2.694 0 0 0-.703-1.928 2.856 2.856 0 0 0-1.86-.692v.003Zm25.774 9.886h-2.575a.515.515 0 0 1-.487-.349L69.56 28.34l-3.587 6.556a.518.518 0 0 1-.458.268h-2.627a.513.513 0 0 1-.486-.349l-4.55-13.31a.515.515 0 0 1 .489-.688h4.352a.518.518 0 0 1 .49.355l1.954 5.97 3.454-6.068a.513.513 0 0 1 .459-.261h2.405a.516.516 0 0 1 .48.334l2.262 6.01 3.268-6.074a.518.518 0 0 1 .459-.27h4.617a.518.518 0 0 1 .459.774l-7.695 13.31a.522.522 0 0 1-.458.267Zm-2.208-1.031h1.91l7.101-12.28h-3.436l-3.665 6.803a.516.516 0 0 1-.76.167.518.518 0 0 1-.177-.231l-2.526-6.74h-1.748l-3.894 6.813a.517.517 0 0 1-.771.148.51.51 0 0 1-.166-.242l-2.192-6.718H59.06l4.196 12.277h1.959l4.002-7.311a.512.512 0 0 1 .939.08l2.483 7.234ZM6.835 20.722H3.17a.747.747 0 0 0-.744.744v13.515a.745.745 0 0 0 .744.754h3.665a.745.745 0 0 0 .745-.745V21.475a.747.747 0 0 0-.745-.753ZM6.55 34.695H3.457V21.762h3.092v12.933Zm15.721-6.978-11.804-6.814a.507.507 0 0 0-.515 0 .516.516 0 0 0-.257.444v13.63a.515.515 0 0 0 .772.446l11.804-6.815a.513.513 0 0 0 0-.89Zm-2.91 1.375-8.635 4.986V22.245l10.258 5.93-1.622.917Z"/></g><defs><clipPath id="a"><path fill="#fff" d="M0 0h87.375v35.84H0z"/></clipPath></defs></svg>