<svg xmlns="http://www.w3.org/2000/svg" width="32" height="32" fill="none"><rect width="32" height="32" fill="#000" rx="10"/><g clip-path="url(#a)"><path fill="#fff" d="M20.35 9.341a5.282 5.282 0 0 0-1.788-1.672A5.138 5.138 0 0 0 16.23 7h-.451a5.138 5.138 0 0 0-2.33.67 5.283 5.283 0 0 0-1.786 1.671 5.596 5.596 0 0 0-.904 2.312 5.65 5.65 0 0 0 .18 2.484c.012.04.023.081.037.122l3.29 8.807c.125.37.36.691.67.918a1.808 1.808 0 0 0 2.133 0 1.88 1.88 0 0 0 .67-.918l2.804-7.494.474-1.269.012-.034a5.65 5.65 0 0 0 .232-2.547 5.601 5.601 0 0 0-.913-2.38Zm-1.274 5.653-2.81 7.52-.011.032a.252.252 0 0 1-.094.137.242.242 0 0 1-.156.047.24.24 0 0 1-.156-.047.25.25 0 0 1-.092-.137l-2.402-6.432c.137.02.275.03.414.032h.047a2.557 2.557 0 0 0 1.575-.564c.45-.36.772-.864.915-1.43.09-.35.293-.657.578-.87a1.5 1.5 0 0 1 .985-.297c.214.014.421.08.605.193s.34.268.453.455a1.543 1.543 0 0 1 .15 1.361Zm-1.114-3.619h-.183a3.045 3.045 0 0 0-1.893.66 3.176 3.176 0 0 0-1.103 1.707c-.055.225-.18.424-.358.568a1.004 1.004 0 0 1-.622.224h-.028a1.408 1.408 0 0 1-.916-.334 1.472 1.472 0 0 1-.496-.856 4.014 4.014 0 0 1-.017-1.607 3.97 3.97 0 0 1 .614-1.478 3.69 3.69 0 0 1 1.25-1.173c.5-.285 1.06-.446 1.632-.47h.325a3.596 3.596 0 0 1 1.633.47c.5.285.93.687 1.251 1.173.374.55.604 1.19.668 1.857a2.851 2.851 0 0 0-1.758-.74Z"/></g><defs><clipPath id="a"><path fill="#fff" d="M8 7h16v17.333H8z"/></clipPath></defs></svg>