<svg xmlns="http://www.w3.org/2000/svg" width="90" height="27" fill="none"><path fill="#000" d="M9.803 6.143v2.226c0 .12-.1.214-.22.208a13.384 13.384 0 0 0-.766-.023c-1.794 0-3.242.534-4.349 1.6-1.106 1.066-1.66 2.614-1.66 4.643v11.211a.21.21 0 0 1-.21.211H.21A.21.21 0 0 1 0 26.01V6.655c0-.305.248-.553.553-.553h1.925a.21.21 0 0 1 .211.211v2.913c.473-.87 1.252-1.639 2.332-2.312C6.102 6.243 7.474 5.91 9.133 5.91l.474.029a.203.203 0 0 1 .196.205Zm21.109.172V26.01a.21.21 0 0 1-.211.211h-2.267a.21.21 0 0 1-.21-.21v-3.507c-1.504 2.794-4.047 4.19-7.632 4.19-2.95 0-5.272-1.02-6.957-3.06-1.688-2.042-2.53-4.525-2.53-7.45 0-2.924.845-5.412 2.53-7.468 1.685-2.055 4.006-3.081 6.957-3.081 3.585 0 6.128 1.397 7.631 4.19V6.657c0-.305.248-.553.553-.553h1.925a.21.21 0 0 1 .211.211ZM15.91 10.471c-1.303 1.542-1.956 3.447-1.956 5.71 0 2.266.653 4.162 1.956 5.69 1.306 1.527 3.051 2.291 5.238 2.291 2.188 0 3.916-.764 5.179-2.291 1.266-1.528 1.896-3.424 1.896-5.69 0-2.292-.633-4.202-1.896-5.73-1.266-1.528-2.991-2.292-5.179-2.292-2.187 0-3.932.77-5.238 2.312Zm25.164-1.997v17.534a.21.21 0 0 1-.211.211h-2.387a.21.21 0 0 1-.211-.211V8.474H34.64a.21.21 0 0 1-.211-.21v-1.95a.21.21 0 0 1 .21-.211h3.625V.926c0-.305.248-.553.553-.553h2.059c.108 0 .194.086.194.194v5.536h3.9a.21.21 0 0 1 .212.21v1.95a.21.21 0 0 1-.211.211h-3.898Zm8.891-4.524c-.607 0-1.095-.176-1.463-.532-.37-.357-.553-.824-.553-1.403 0-.578.186-1.06.553-1.442C48.87.191 49.358 0 49.965 0c.58 0 1.061.191 1.443.573.382.382.573.864.573 1.442 0 .579-.19 1.046-.573 1.403-.382.356-.861.533-1.443.533Zm-1.422 22.058V6.313a.21.21 0 0 1 .211-.21h2.387a.21.21 0 0 1 .21.21v19.695a.21.21 0 0 1-.21.21h-2.387a.21.21 0 0 1-.211-.21Zm16.947.686c-3.056 0-5.528-1.035-7.41-3.102-1.885-2.066-2.826-4.538-2.826-7.408 0-2.9.94-5.382 2.826-7.449 1.885-2.066 4.354-3.101 7.41-3.101 3.083 0 5.567 1.035 7.452 3.101 1.885 2.07 2.826 4.553 2.826 7.449 0 2.873-.944 5.342-2.826 7.408-1.882 2.067-4.366 3.102-7.451 3.102ZM58.1 16.18c0 2.292.684 4.196 2.056 5.71 1.368 1.516 3.148 2.271 5.338 2.271 2.212 0 4.006-.758 5.375-2.271 1.368-1.514 2.056-3.418 2.056-5.71 0-2.318-.685-4.236-2.056-5.75-1.372-1.513-3.163-2.272-5.375-2.272-2.213 0-4.001.759-5.358 2.272-1.36 1.517-2.036 3.432-2.036 5.75Z"/><path fill="#000" d="M89.5 9.934h-5.79v12.482h5.79V9.934Z" opacity=".3"/><path fill="#000" d="M86.605 25.239a2.894 2.894 0 1 0 .001-5.788 2.894 2.894 0 0 0 0 5.788Zm0-12.369a2.894 2.894 0 1 0 .001-5.788 2.894 2.894 0 0 0 0 5.788Z"/></svg>