<svg xmlns="http://www.w3.org/2000/svg" width="125" height="20" fill="none"><g fill="#000" clip-path="url(#a)"><path d="M3.67 16.043c2.654-1.621 4.865-3.832 6.338-6.485.295-.148.443-.148.59-.148.147.148.295.295.147.59-1.031 1.769-2.358 3.537-3.98 4.864-.589.59-1.326 1.032-1.915 1.474 1.916.442 4.127.295 5.896-.737 2.063-1.18 3.537-3.095 4.127-5.306a16.926 16.926 0 0 0 0-5.454c0-.147-.148-.147-.148-.147-5.159 0-9.728 3.537-11.055 8.401v.148c-.294.442-.294.884-.442 1.474 0 .147-.147.294-.442.294-.147 0-.295-.294-.295-.442 0-.442.148-1.032.295-1.474C1.459 11.621.575 9.853.575 7.79v-.884C.28 7.789.133 8.82.133 10c0 2.506 1.032 4.864 2.653 6.633.295-.148.59-.295.884-.59Z"/><path d="M9.713.42c-2.063 0-3.98.736-5.601 1.768.884.59 1.621 1.326 2.064 2.21.442.738.59 1.475.736 2.36 2.064-1.917 4.865-2.801 7.665-2.949.442 0 .885.295.885.737a18.793 18.793 0 0 1 0 5.749v.147a8.766 8.766 0 0 1-4.422 5.749c-1.327.737-2.8 1.032-4.275 1.032-1.032 0-1.916-.148-2.948-.443-.147.148-.295.148-.59.295 1.622 1.474 3.833 2.358 6.191 2.358A9.562 9.562 0 0 0 19 9.853C19 4.546 15.02.419 9.713.419Z"/><path d="M3.671 10.737V8.231c0-.737-.147-1.474-.442-2.358 0-.148.147-.442.295-.442.147 0 .442.147.442.294.147.885.295 1.77.442 2.506v1.18c.59-.738 1.032-1.475 1.621-2.064 0-1.916-.884-3.685-2.505-4.717h-.148a2.035 2.035 0 0 1-.442.59C.87 5.873.87 9.705 3.081 12.21c.148-.442.295-1.032.59-1.474Zm48.345-2.801V6.02h-3.243v10.76h3.243v-4.864c0-2.063 1.916-2.653 3.243-2.506V5.873c-1.474 0-2.948.59-3.243 2.063ZM29.759 5.725c-1.474 0-2.506.59-3.095 1.327V1.746H23.42V16.78h3.243v-5.896c0-1.474.884-2.21 2.063-2.21 1.032 0 1.916.589 1.916 1.916v6.19h3.243v-6.633c-.147-2.8-1.916-4.422-4.127-4.422Zm11.349 0c-3.243 0-5.749 2.506-5.749 5.749s2.506 5.748 5.749 5.748 5.748-2.505 5.748-5.748c0-3.243-2.505-5.749-5.748-5.749Zm0 8.255c-1.474 0-2.506-1.032-2.506-2.506 0-1.474 1.032-2.506 2.506-2.506 1.474 0 2.506 1.032 2.506 2.506 0 1.474-1.032 2.506-2.506 2.506Zm61.761-6.928c-.737-.884-1.769-1.327-3.243-1.327-2.8 0-5.16 2.506-5.16 5.749s2.36 5.748 5.16 5.748c1.474 0 2.506-.442 3.243-1.326v1.032h3.242V6.02h-3.242v1.032Zm-2.506 7.075c-1.474 0-2.506-1.032-2.506-2.653s1.032-2.653 2.506-2.653c1.474 0 2.506 1.032 2.506 2.653s-1.032 2.653-2.506 2.653ZM63.07 5.725c-1.473 0-2.505.59-3.095 1.327V6.02h-3.243v10.76h3.243v-5.896c0-1.474.885-2.21 2.064-2.21 1.032 0 1.916.589 1.916 1.916v6.19h3.243v-6.633c-.148-2.8-2.064-4.422-4.127-4.422Zm24.764 0c-3.39 0-5.749 2.506-5.749 5.749s2.358 5.748 6.043 5.748c2.064 0 3.685-.736 4.717-2.21l-2.653-1.474c-.442.442-1.18.884-2.064.884-1.179 0-2.21-.442-2.653-1.474h7.665c.147-.442.147-.884.147-1.327.148-3.39-2.21-5.896-5.454-5.896Zm-2.359 4.57c.295-1.032 1.18-1.769 2.359-1.769 1.031 0 1.916.442 2.358 1.769h-4.717Zm35.081-4.57c-1.474 0-2.505.59-3.095 1.474a3.355 3.355 0 0 0-2.801-1.474c-1.474 0-2.358.59-2.948 1.327V6.02h-3.242v10.76h3.242v-6.043c0-1.327.59-2.064 1.622-2.064s1.621.737 1.621 1.77v6.337h3.243v-6.043c0-1.327.59-2.064 1.621-2.064 1.032 0 1.622.737 1.622 1.77v6.337h3.243v-6.633c0-2.653-1.622-4.422-4.128-4.422Zm-44.809 0c-1.474 0-2.505.443-3.243 1.327V1.746h-3.242V16.78h3.242v-1.032c.737.885 1.77 1.327 3.243 1.327 2.8 0 5.16-2.506 5.16-5.748 0-3.243-2.36-5.602-5.16-5.602Zm-.737 8.402c-1.474 0-2.506-1.032-2.506-2.653s1.032-2.653 2.506-2.653c1.474 0 2.506 1.032 2.506 2.653s-1.032 2.653-2.506 2.653Z"/></g><defs><clipPath id="a"><path fill="#fff" d="M.133.42h124.552v19.16H.133z"/></clipPath></defs></svg>