<svg xmlns="http://www.w3.org/2000/svg" width="145" height="24" fill="none"><g fill="#000" clip-path="url(#a)"><path d="M57.535 4.992a6.8 6.8 0 0 0-5.45 2.723 6.796 6.796 0 0 0-5.45-2.723 6.789 6.789 0 0 0-4.074 1.354v-.885h-2.748v16.677h2.748v-10.32a4.08 4.08 0 0 1 4.074-4.074 4.08 4.08 0 0 1 4.075 4.074v10.323h2.748V11.818a4.08 4.08 0 0 1 4.075-4.074 4.08 4.08 0 0 1 4.074 4.074v10.323h2.749V11.818c.002-3.763-3.058-6.826-6.821-6.826Zm84.464.469v1.98a8.814 8.814 0 0 0-6.102-2.449c-4.881 0-8.85 3.97-8.85 8.852 0 4.881 3.972 8.851 8.85 8.851a8.825 8.825 0 0 0 6.102-2.449v1.899h2.749V5.462h-2.749Zm0 8.385a6.109 6.109 0 0 1-6.102 6.103 6.108 6.108 0 0 1-6.101-6.103 6.108 6.108 0 0 1 6.101-6.102c3.365-.003 6.102 2.737 6.102 6.102ZM94.354 4.992a7.384 7.384 0 0 0-4.707 1.688V5.459h-2.749v16.68h2.782v-9.72a4.68 4.68 0 0 1 4.674-4.675 4.68 4.68 0 0 1 4.674 4.674v9.723h2.749v-9.723c0-4.094-3.33-7.426-7.423-7.426Zm-18.652 0c-4.88 0-8.85 3.97-8.85 8.852 0 4.881 3.971 8.851 8.85 8.851 4.881 0 8.85-3.972 8.85-8.851 0-4.88-3.969-8.852-8.85-8.852Zm6.102 8.854a6.108 6.108 0 0 1-6.102 6.103 6.108 6.108 0 0 1-6.102-6.103 6.109 6.109 0 0 1 6.102-6.102 6.108 6.108 0 0 1 6.102 6.102Zm27.805-5.906h3.886V5.19h-3.886V.951h-2.749v4.24h-3.305v2.748h3.305v14.193h7.152V19.38h-4.403V7.94Zm7.414-2.478v16.68h2.749V8.535h6.633V5.462h-9.382ZM5.79-.001v9.944h.48a5.306 5.306 0 0 0 5.307-5.308V0H5.789ZM0 15.25v8.4h5.788V9.943h-.481A5.308 5.308 0 0 0 0 15.251ZM15.57-.001v9.944h.481a5.306 5.306 0 0 0 5.307-5.308V0H15.57ZM9.781 15.25v8.4h5.788V9.943h-.48a5.308 5.308 0 0 0-5.308 5.308ZM25.352-.001v9.944h.48a5.306 5.306 0 0 0 5.307-5.308V0h-5.787ZM19.559 15.25v8.4h5.787V9.943h-.48a5.31 5.31 0 0 0-5.307 5.308Z"/></g><defs><clipPath id="a"><path fill="#fff" d="M0 0h144.75v23.653H0z"/></clipPath></defs></svg>