<svg xmlns="http://www.w3.org/2000/svg" width="70" height="32" fill="none"><g clip-path="url(#a)"><mask id="b" width="70" height="30" x="0" y="1" maskUnits="userSpaceOnUse" style="mask-type:luminance"><path fill="#fff" d="M69.028 1.173H.058v29.654h68.97V1.173Z"/></mask><g fill="#000" mask="url(#b)"><path d="M3.996 1.173H.059v19.633h3.937V1.174Zm5.625 11.389c.026-1.65 1.055-2.806 2.751-2.806 1.697 0 2.6 1.01 2.626 2.806H9.621ZM12.4 6.895c-4.035 0-6.692 2.721-6.692 7.152 0 4.515 2.6 7.18 6.822 7.18 3.3 0 5.79-1.823 6.176-4.488h-3.86c-.335.842-1.107 1.264-2.316 1.264-1.751 0-2.832-1.01-2.909-2.777h9.17a16.02 16.02 0 0 0 .102-1.88c0-3.814-2.624-6.451-6.486-6.451m16.186.029c-1.878 0-3.3.813-4.014 2.327V7.287h-3.94v13.52h3.94v-7.068c0-2.076.823-3.198 2.384-3.198 1.56 0 2.188 1.038 2.188 3.31v6.955h3.962v-8.358c0-3.668-1.518-5.524-4.53-5.524M41.756 17.61c-1.834 0-2.96-1.515-2.96-3.563 0-2.049 1.132-3.534 2.96-3.534 1.957 0 2.96 1.6 2.96 3.534 0 1.964-1.003 3.563-2.96 3.563Zm2.806-8.386c-.67-1.375-2.085-2.3-3.888-2.3-3.601 0-5.892 3.085-5.892 7.123 0 4.067 2.135 7.125 5.841 7.125 1.726 0 3.27-.918 3.94-2.273v1.907h3.91V1.174h-3.91v8.051Zm9.96-8.051h-3.69l-.017 19.633h3.723l-.016-19.633Z"/><path d="M69.018 7.287h-3.62v6.705c0 2.074-.798 3.422-2.393 3.422-1.65 0-2.188-1.18-2.188-2.918V7.287h-3.94v7.855c0 3.365 1.415 5.665 4.584 5.665 1.878 0 3.242-.602 3.937-2.032l-.025 3.01c0 3.536-2.43 5.58-5.418 5.58-2.79 0-5.09-1.746-5.386-4.888h-3.726c.343 4.715 4.174 8.35 9.112 8.35 5.177 0 9.072-3.996 9.072-9.412l-.01-14.128Z"/></g></g><defs><clipPath id="a"><path fill="#fff" d="M.059.94h69.025v30.12H.059z"/></clipPath></defs></svg>