<svg xmlns="http://www.w3.org/2000/svg" width="356" height="141" fill="none"><g fill="#000" clip-path="url(#a)"><path d="m113.298 139.7-.3-1.5c-3 1.3-6.1 2-9.6 2-7.4 0-13.3-3.8-13.3-13s5.9-13 13.4-13.1c3.7 0 7.1.7 10.3 2.2l-.6 1.7c-3-1.4-6.3-2.1-9.7-2.1-6.5 0-11.6 3.2-11.6 11.3 0 8 5.1 11.2 11.5 11.2 3.3 0 6.5-.7 9.3-2V128h-11.3v-1.7h13v13.4h-1.1Zm36-.1-6.5-9h-12.3v9.1h-1.9l-.1-25h15c4.6 0 8.3 2.3 8.3 7.9 0 5-2.9 7.6-6.8 8l6.5 9.1-2.2-.1Zm-18.8-23.2v12.4h13.1c3.5 0 6.4-1.8 6.4-6.2 0-4.3-2.9-6.2-6.4-6.2h-13.1Zm47 23.6c-7.4 0-13.3-3.8-13.3-13s5.9-13 13.3-13.1c7.4 0 13.3 3.8 13.3 13 0 9.3-5.9 13.1-13.3 13.1Zm-.1-24.2c-6.3 0-11.4 3.2-11.4 11.3 0 8 5.1 11.2 11.5 11.2 6.3 0 11.4-3.2 11.4-11.3 0-8.1-5.2-11.3-11.5-11.2Zm48.5-1.5h1.9v12.5c0 9.2-5.3 13-12 13s-12-3.8-12.1-13v-12.5h1.9v12.5c0 8 4.5 11.2 10.2 11.2 5.6 0 10.1-3.2 10.1-11.2v-12.5Zm18.1 16v9.1h-1.9l-.1-25h15c4.6 0 8.3 2.3 8.3 7.9 0 5.7-3.6 8-8.3 8h-13Zm-.1-14.2v12.4h13.1c3.5 0 6.4-1.8 6.4-6.2 0-4.3-2.9-6.2-6.4-6.2h-13.1Zm-103.1-90.8-.1-23.3-11.2.1V.3l24-.1V2h-10.9l.1 23.3h-1.9Zm47.1-.2V13.5l-20.9.1.1 11.6h-1.9l-.1-25h1.9v11.6l20.9-.1-.1-11.6h1.9l.1 25h-1.9Zm16.7 0-.1-25 21.3-.1v1.8h-19.4v9.9l17.4-.1v1.8h-17.4v9.9l19.5-.1V25l-21.3.1Zm-95.6 24h4.8l.1 22.7c0 16.7-9.8 23.6-22.1 23.6-12.4 0-22.2-6.8-22.3-23.5l-.1-22.7h4.8l.1 22.7c0 13.6 7.8 19.1 17.5 19.1s17.4-5.6 17.4-19.2l-.2-22.7Zm67.8 42c-5.7 2.7-12 4-18.7 4.1-13.6 0-24.6-6.8-24.6-23.5s10.9-23.6 24.5-23.6a43.996 43.996 0 0 1 18.7 4l-1.4 4.2a42.3 42.3 0 0 0-17.3-3.7c-10.9 0-19.8 5.6-19.7 19.2 0 13.6 8.9 19.1 19.8 19.1a43.995 43.995 0 0 0 17.3-3.7l1.4 3.9Zm33.4 3-.1-40.9-19.9.1v-4.5l43.9-.1v4.5h-19.3l.1 40.9h-4.7Zm80.2-45.5h4.8l.1 22.7c0 16.7-9.8 23.6-22.2 23.6-12.4 0-22.2-6.8-22.3-23.5l-.1-22.7h4.8l.1 22.7c0 13.6 7.8 19.1 17.5 19.1s17.4-5.6 17.4-19.2l-.1-22.7Zm24.5 38a50.203 50.203 0 0 0 19.2 3.8c8.2 0 16.5-2.5 16.4-8.6 0-12.5-36.7-3.6-36.8-20.9 0-9.4 10-13.3 20.5-13.4 6.9 0 13.4 1.3 19.2 4l-1.7 4.2a41.599 41.599 0 0 0-17.7-3.7c-8.1 0-15.6 2.3-15.6 8.7 0 5.9 6.9 7 15.1 8.2 12.2 1.8 21.7 3.9 21.7 12.6 0 9.4-11.2 13.1-21.4 13.1-6.7 0-14.5-1.3-20.3-3.9l1.4-4.1ZM33.8 62.1l-3.2 5.6L43 88.8l-33.2.1 5.6-9.9 14-24.4-3.1-5.3L0 94.7l52.8-.1-19-32.5Z"/></g><defs><clipPath id="a"><path fill="#fff" d="M0 0h355.4v140.2H0z"/></clipPath></defs></svg>