<svg xmlns="http://www.w3.org/2000/svg" width="49" height="16" fill="none"><path fill="#000" d="M15.885 9.34c-.244-.215-.447-.296-.772-.296-.529 0-.813.229-.813.888v4.045h-1.41V9.192c.34-.846 1.03-1.438 2.223-1.438.772 0 1.233.31 1.517.578l-.745 1.008Zm7.425 2.07h-4.824c.217.954 1.03 1.451 1.843 1.451.677 0 1.138-.242 1.545-.524l.718 1.008c-.623.484-1.382.726-2.262.726-1.83 0-3.334-1.29-3.334-3.199 0-1.948 1.49-3.118 3.212-3.118 2.019 0 3.157 1.411 3.157 3.078a2.83 2.83 0 0 1-.055.578Zm-1.382-1.156c-.23-.833-.854-1.29-1.707-1.29-.908 0-1.545.483-1.735 1.29h3.442Zm6.872 3.722v-3.575c0-.833-.529-1.41-1.382-1.41-.84 0-1.45.577-1.45 1.41v3.575h-1.41V9.581c.475-1.075 1.383-1.828 2.927-1.828 1.613 0 2.724 1.008 2.724 2.607v3.616H28.8Zm7.331-2.566v.416c0 1.452-.853 2.244-2.249 2.244-1.41 0-2.25-.793-2.25-2.244V6.504h1.41v1.922h2.615v1.21h-2.615v2.19c0 .685.203 1.008.84 1.008.624 0 .84-.323.84-1.008v-.416h1.41Zm7.277 0h-4.824c.216.954 1.03 1.451 1.843 1.451.677 0 1.138-.242 1.545-.524l.718 1.008c-.623.484-1.382.726-2.263.726-1.83 0-3.333-1.29-3.333-3.199 0-1.948 1.49-3.118 3.212-3.118 2.019 0 3.157 1.411 3.157 3.078-.001.188-.015.39-.055.578Zm-1.383-1.156c-.23-.833-.853-1.29-1.707-1.29-.908 0-1.545.483-1.734 1.29h3.441Zm5.622-.914c-.244-.215-.447-.296-.772-.296-.529 0-.813.229-.813.888v4.045h-1.41V9.192c.34-.846 1.03-1.438 2.223-1.438.772 0 1.233.31 1.517.578l-.745 1.008Zm-36.8-.64a.92.92 0 0 1-.923.915H6.89l-.858 3.69-.003.013a3.035 3.035 0 0 1-2.987 2.465C1.365 15.783 0 14.431 0 12.767c0-.542.148-1.075.426-1.54a.928.928 0 0 1 1.265-.318.91.91 0 0 1 .321 1.255 1.183 1.183 0 0 0-.166.604c0 .653.537 1.184 1.195 1.184.59 0 1.082-.427 1.177-.986l.004-.019.008-.039.143-.621.62-2.671h-2.23a.92.92 0 0 1-.924-.916.92.92 0 0 1 .923-.915h7.161a.918.918 0 0 1 .924.915Zm1.837-5.685c0 .047-.003.095-.004.143a2.428 2.428 0 0 1-.024.261v.006a3.285 3.285 0 0 1-.077.375l-.008.028a6.07 6.07 0 0 1-.052.164c-.002.01-.006.018-.01.028-.02.06-.042.117-.068.173a2.32 2.32 0 0 1-.099.207c-.024.05-.05.096-.078.144a.929.929 0 0 1-1.27.329.91.91 0 0 1-.322-1.254 1.081 1.081 0 0 0 .114-.265 1.193 1.193 0 0 0 .05-.339 1.189 1.189 0 0 0-1.64-1.095.28.28 0 0 0-.056.024.981.981 0 0 0-.195.114.542.542 0 0 0-.056.044.36.36 0 0 0-.045.038c-.024.02-.046.044-.068.066a1.21 1.21 0 0 0-.282.494l-.024.103-.002.008-.014.064-.599 2.578-.03.126-.087.377H5.844l.197-.85.613-2.64.007-.039.039-.163.002-.017c.008-.03.018-.06.028-.091a2.872 2.872 0 0 1 .311-.7 3.021 3.021 0 0 1 .605-.714l.107-.085c.068-.054.142-.108.217-.158a3.27 3.27 0 0 1 .354-.2c.036-.015.072-.033.108-.05l.113-.045a3.245 3.245 0 0 1 .422-.127c.032-.008.064-.014.096-.02.024-.006.05-.01.075-.014.082-.014.165-.024.25-.032.083-.006.168-.01.254-.01 1.677-.001 3.042 1.352 3.042 3.015Z"/></svg>