<svg xmlns="http://www.w3.org/2000/svg" width="163" height="41" fill="none"><path fill="#000" d="m55.579 21.73 2.962-11.27h3.703l2.962 11.27h-2.19l-.611-2.48H58.38l-.612 2.48h-2.19Zm3.3-4.444h3.027l-1.369-5.49h-.29l-1.368 5.49Zm10.686 4.669a4.586 4.586 0 0 1-2.109-.483 3.647 3.647 0 0 1-1.481-1.4c-.365-.613-.547-1.353-.547-2.223v-.225c0-.87.182-1.61.547-2.221a3.647 3.647 0 0 1 1.481-1.401 4.586 4.586 0 0 1 2.109-.483c.762 0 1.417.134 1.964.402.547.269.987.64 1.32 1.111.343.462.569.988.676 1.578l-1.964.419a2.313 2.313 0 0 0-.29-.87 1.61 1.61 0 0 0-.644-.611c-.268-.15-.606-.226-1.014-.226a2.26 2.26 0 0 0-1.11.274 1.89 1.89 0 0 0-.773.789c-.183.343-.274.767-.274 1.271v.161c0 .505.091.934.274 1.288.193.344.45.607.772.789.333.172.703.258 1.111.258.612 0 1.073-.156 1.385-.467.322-.322.526-.74.611-1.256l1.964.467a4.42 4.42 0 0 1-.724 1.561 3.483 3.483 0 0 1-1.32 1.095c-.547.268-1.202.403-1.964.403Zm8.628 0a4.586 4.586 0 0 1-2.11-.483 3.647 3.647 0 0 1-1.48-1.4c-.365-.613-.548-1.353-.548-2.223v-.225c0-.87.183-1.61.548-2.221a3.647 3.647 0 0 1 1.48-1.401 4.586 4.586 0 0 1 2.11-.483c.762 0 1.416.134 1.964.402.547.269.987.64 1.32 1.111.343.462.569.988.676 1.578l-1.964.419a2.315 2.315 0 0 0-.29-.87 1.61 1.61 0 0 0-.644-.611c-.268-.15-.606-.226-1.014-.226a2.27 2.27 0 0 0-1.11.274 1.89 1.89 0 0 0-.774.789c-.182.343-.273.767-.273 1.271v.161c0 .505.091.934.273 1.288.194.344.451.607.773.789.333.172.703.258 1.111.258.612 0 1.073-.156 1.384-.467.322-.322.526-.74.612-1.256l1.964.467a4.42 4.42 0 0 1-.724 1.561 3.483 3.483 0 0 1-1.32 1.095c-.548.268-1.202.403-1.964.403Zm8.515 0c-.794 0-1.498-.167-2.11-.5a3.71 3.71 0 0 1-1.416-1.432c-.332-.623-.499-1.352-.499-2.19v-.193c0-.837.166-1.561.5-2.173a3.46 3.46 0 0 1 1.4-1.433c.6-.343 1.298-.515 2.093-.515.783 0 1.465.177 2.044.531.58.344 1.03.827 1.352 1.45.322.61.483 1.325.483 2.14v.692h-5.811c.021.548.225.993.611 1.337.387.343.859.515 1.417.515.569 0 .987-.124 1.256-.37a2.6 2.6 0 0 0 .611-.822l1.659.87c-.15.279-.37.585-.66.917-.28.322-.655.601-1.127.838-.472.225-1.073.338-1.803.338Zm-1.948-5.136h3.735c-.043-.461-.231-.831-.564-1.11-.322-.28-.746-.42-1.272-.42-.547 0-.982.14-1.304.42-.322.279-.52.649-.595 1.11Zm6.796 4.91V10.46h2.028v11.27h-2.028Zm7.11.226c-.795 0-1.498-.167-2.11-.5a3.71 3.71 0 0 1-1.416-1.432c-.333-.623-.5-1.352-.5-2.19v-.193c0-.837.167-1.561.5-2.173.332-.623.8-1.1 1.4-1.433.601-.343 1.299-.515 2.093-.515.783 0 1.465.177 2.044.531a3.53 3.53 0 0 1 1.353 1.45c.322.61.483 1.325.483 2.14v.692h-5.812c.022.548.226.993.612 1.337.386.343.858.515 1.416.515.57 0 .988-.124 1.256-.37.269-.247.472-.521.612-.822l1.658.87c-.15.279-.37.585-.66.917-.279.322-.655.601-1.127.838-.472.225-1.073.338-1.803.338Zm-1.949-5.136h3.735c-.043-.461-.231-.831-.563-1.11-.322-.28-.746-.42-1.272-.42-.547 0-.982.14-1.304.42-.322.279-.52.649-.596 1.11Zm6.796 4.91v-7.985h1.996v.902h.29a1.28 1.28 0 0 1 .58-.708c.279-.15.601-.226.966-.226h.965v1.803h-.998c-.515 0-.939.14-1.271.419-.333.268-.499.687-.499 1.255v4.54h-2.029Zm7.868.226a3.851 3.851 0 0 1-1.529-.29 2.618 2.618 0 0 1-1.078-.87c-.258-.386-.387-.853-.387-1.4 0-.547.129-1.003.387-1.368a2.387 2.387 0 0 1 1.094-.838c.472-.193 1.009-.29 1.61-.29h2.189v-.45c0-.376-.118-.682-.354-.918-.236-.247-.611-.37-1.127-.37-.504 0-.88.118-1.126.354-.247.226-.408.52-.483.886l-1.868-.628a3.23 3.23 0 0 1 .612-1.11c.29-.344.671-.618 1.143-.822.483-.215 1.068-.322 1.755-.322 1.051 0 1.883.263 2.495.789.612.526.917 1.288.917 2.286v2.978c0 .322.151.483.451.483h.644v1.674h-1.352c-.397 0-.725-.096-.982-.29a.917.917 0 0 1-.386-.772v-.016h-.306c-.043.128-.14.3-.29.515-.15.204-.386.386-.708.547-.322.161-.762.242-1.321.242Zm.355-1.642c.568 0 1.03-.156 1.384-.467.365-.322.547-.746.547-1.272v-.161h-2.044c-.376 0-.671.08-.885.241-.215.161-.322.387-.322.677 0 .29.112.526.338.708.225.182.552.274.982.274Zm8.145 1.416c-.526 0-.955-.16-1.288-.483-.322-.332-.483-.772-.483-1.32V15.42h-1.996v-1.675h1.996v-2.479h2.029v2.48h2.189v1.674h-2.189v4.153c0 .322.15.483.451.483h1.545v1.674h-2.254Zm6.834.226c-.794 0-1.497-.167-2.109-.5a3.714 3.714 0 0 1-1.417-1.432c-.333-.623-.499-1.352-.499-2.19v-.193c0-.837.166-1.561.499-2.173.333-.623.8-1.1 1.401-1.433.601-.343 1.298-.515 2.092-.515.784 0 1.465.177 2.045.531.58.344 1.03.827 1.352 1.45.322.61.483 1.325.483 2.14v.692h-5.811c.021.548.225.993.611 1.337.387.343.859.515 1.417.515.569 0 .987-.124 1.256-.37a2.6 2.6 0 0 0 .611-.822l1.659.87a5.23 5.23 0 0 1-.66.917c-.279.322-.655.601-1.127.838-.473.225-1.074.338-1.803.338Zm-1.948-5.136h3.735c-.043-.461-.231-.831-.564-1.11-.322-.28-.746-.42-1.272-.42-.547 0-.982.14-1.304.42-.322.279-.52.649-.595 1.11Zm10.015 5.136a3.616 3.616 0 0 1-1.787-.467c-.547-.322-.987-.789-1.32-1.4-.332-.613-.499-1.353-.499-2.222v-.258c0-.87.167-1.61.499-2.222.333-.611.773-1.073 1.32-1.384a3.464 3.464 0 0 1 1.787-.483c.483 0 .886.06 1.208.177.332.107.601.247.805.419.204.171.359.354.467.547h.289V10.46h2.029v11.27h-1.997v-.967h-.289c-.183.3-.467.574-.853.821-.376.247-.929.37-1.659.37Zm.612-1.771c.623 0 1.143-.199 1.562-.596.418-.408.627-.998.627-1.77v-.162c0-.772-.209-1.357-.627-1.754-.408-.408-.929-.612-1.562-.612-.622 0-1.143.204-1.561.612-.419.397-.628.982-.628 1.754v.161c0 .773.209 1.363.628 1.771.418.397.939.596 1.561.596ZM56.352 36.729V25.46h7.244v1.932h-5.12v2.689h4.67v1.931h-4.67v2.785h5.216v1.932h-7.34Zm14.161 3.22v-4.137h-.29a2.35 2.35 0 0 1-.466.547 2.366 2.366 0 0 1-.805.419c-.322.118-.724.177-1.207.177-.644 0-1.24-.156-1.787-.467-.548-.322-.988-.789-1.32-1.4-.333-.613-.5-1.353-.5-2.222v-.258c0-.87.167-1.61.5-2.221.332-.612.772-1.074 1.32-1.385a3.52 3.52 0 0 1 1.787-.483c.73 0 1.282.123 1.658.37.386.236.67.51.853.821h.29v-.966h1.996V39.95h-2.029Zm-2.157-4.765c.634 0 1.154-.199 1.562-.596.418-.408.628-.998.628-1.77v-.162c0-.772-.21-1.357-.628-1.754-.419-.408-.94-.612-1.562-.612-.622 0-1.143.204-1.561.612-.419.397-.628.982-.628 1.754v.161c0 .773.21 1.363.628 1.771.418.397.939.596 1.561.596Zm8.672 1.674c-.622 0-1.17-.14-1.642-.418a2.971 2.971 0 0 1-1.078-1.192c-.258-.504-.387-1.084-.387-1.738v-4.766h2.029v4.605c0 .6.145 1.051.434 1.352.301.3.725.45 1.272.45.623 0 1.106-.203 1.45-.611.343-.419.514-.998.514-1.739v-4.057h2.029v7.985h-1.996v-1.046h-.29c-.13.268-.37.531-.725.789-.354.257-.89.386-1.61.386Zm6.073-.129v-7.985h2.028v7.985h-2.028Zm1.014-8.918c-.365 0-.676-.118-.934-.354-.246-.236-.37-.548-.37-.934s.124-.698.37-.934c.258-.236.57-.354.934-.354.376 0 .687.118.934.354s.37.548.37.934-.123.698-.37.934c-.247.236-.558.354-.934.354Zm5.516 8.918c-.526 0-.955-.16-1.288-.483-.322-.332-.483-.772-.483-1.32V30.42h-1.996v-1.675h1.996v-2.479h2.028v2.48h2.19v1.674h-2.19v4.153c0 .322.15.483.451.483h1.546v1.674H89.63Zm4.347 3.22v-1.77h4.347c.3 0 .45-.162.45-.484v-2.012h-.29c-.085.182-.22.365-.402.547-.182.183-.429.333-.74.451s-.709.177-1.192.177c-.622 0-1.17-.14-1.641-.418a2.971 2.971 0 0 1-1.08-1.192c-.257-.504-.386-1.084-.386-1.738v-4.766h2.029v4.605c0 .6.145 1.051.435 1.352.3.3.724.45 1.271.45.623 0 1.106-.203 1.45-.611.343-.419.514-.998.514-1.739v-4.057h2.029v9.402c0 .547-.161.982-.483 1.304-.322.333-.751.499-1.288.499h-5.023Zm11.464-3.22V25.46h2.125v11.27h-2.125Zm3.504 0v-7.985h1.997v1.047h.289c.129-.28.371-.542.725-.789.354-.258.891-.386 1.61-.386.622 0 1.164.145 1.626.434.472.28.837.671 1.094 1.175.258.494.387 1.074.387 1.74v4.764h-2.029v-4.604c0-.6-.15-1.052-.451-1.352-.289-.3-.708-.45-1.255-.45-.623 0-1.106.208-1.449.627-.344.408-.515.982-.515 1.723v4.056h-2.029Zm12.432.226c-1.041 0-1.895-.226-2.56-.676-.665-.451-1.068-1.095-1.207-1.932l1.867-.483c.075.375.199.67.37.885.183.215.403.37.66.467.269.086.558.129.87.129.472 0 .821-.08 1.046-.242.225-.171.338-.38.338-.628a.618.618 0 0 0-.322-.563c-.214-.14-.558-.252-1.03-.338l-.451-.08a8.528 8.528 0 0 1-1.529-.435c-.462-.193-.832-.456-1.111-.789s-.419-.762-.419-1.288c0-.794.29-1.4.87-1.819.579-.43 1.341-.644 2.286-.644.891 0 1.631.199 2.221.596.591.397.977.917 1.159 1.561l-1.883.58c-.086-.408-.263-.698-.531-.87-.258-.171-.58-.257-.966-.257-.387 0-.682.07-.886.21a.612.612 0 0 0-.306.547c0 .257.108.45.322.58.215.117.505.208.87.273l.45.08a9.168 9.168 0 0 1 1.626.435c.494.172.88.424 1.16.757.289.322.434.761.434 1.32 0 .837-.306 1.486-.917 1.947-.601.451-1.412.677-2.431.677Zm4.321-.226v-7.985h2.028v7.985h-2.028Zm1.014-8.918c-.365 0-.676-.118-.934-.354-.247-.236-.37-.548-.37-.934s.123-.698.37-.934c.258-.236.569-.354.934-.354.376 0 .687.118.934.354.246.236.37.548.37.934s-.124.698-.37.934c-.247.236-.558.354-.934.354Zm2.071 4.958v-.258c0-.837.166-1.55.499-2.14.332-.602.772-1.058 1.32-1.369a3.577 3.577 0 0 1 1.819-.483c.73 0 1.282.129 1.658.386.376.258.649.526.821.805h.29v-.966h1.996v9.402c0 .547-.161.982-.483 1.304-.322.333-.751.499-1.288.499h-5.345v-1.77h4.637c.3 0 .451-.162.451-.484v-2.077h-.29a2.795 2.795 0 0 1-.451.532 2.393 2.393 0 0 1-.773.434c-.322.118-.729.177-1.223.177a3.672 3.672 0 0 1-1.819-.466 3.59 3.59 0 0 1-1.32-1.369c-.333-.6-.499-1.32-.499-2.157Zm4.217 2.222c.623 0 1.143-.199 1.562-.596.418-.397.628-.955.628-1.674v-.161c0-.73-.21-1.288-.628-1.675-.408-.397-.928-.595-1.562-.595-.622 0-1.143.198-1.561.596-.419.386-.628.944-.628 1.674v.16c0 .72.209 1.278.628 1.675.418.397.939.596 1.561.596Zm5.63 1.738V25.46h2.028v4.267h.29a1.87 1.87 0 0 1 .403-.516c.182-.171.423-.31.724-.418.311-.118.703-.177 1.175-.177.623 0 1.165.145 1.626.434.472.28.837.671 1.095 1.175.257.494.386 1.074.386 1.74v4.764h-2.028v-4.604c0-.6-.151-1.052-.451-1.352-.29-.3-.708-.45-1.256-.45-.622 0-1.105.208-1.449.627-.343.408-.515.982-.515 1.723v4.056h-2.028Zm11.954 0c-.526 0-.956-.16-1.288-.483-.322-.332-.483-.772-.483-1.32V30.42h-1.996v-1.675h1.996v-2.479h2.028v2.48h2.19v1.674h-2.19v4.153c0 .322.15.483.451.483h1.545v1.674h-2.253Zm6.794.226c-1.041 0-1.894-.226-2.56-.676-.665-.451-1.068-1.095-1.207-1.932l1.867-.483c.075.375.199.67.371.885.182.215.402.37.66.467.268.086.558.129.869.129.472 0 .821-.08 1.046-.242.226-.171.338-.38.338-.628a.618.618 0 0 0-.322-.563c-.214-.14-.558-.252-1.03-.338l-.451-.08a8.552 8.552 0 0 1-1.529-.435c-.461-.193-.832-.456-1.111-.789s-.418-.762-.418-1.288c0-.794.289-1.4.869-1.819.58-.43 1.342-.644 2.286-.644.891 0 1.631.199 2.222.596.59.397.976.917 1.159 1.561l-1.884.58c-.086-.408-.263-.698-.531-.87-.258-.171-.58-.257-.966-.257s-.681.07-.885.21a.612.612 0 0 0-.306.547c0 .257.107.45.322.58.214.117.504.208.869.273l.451.08a9.168 9.168 0 0 1 1.626.435c.493.172.88.424 1.159.757.29.322.434.761.434 1.32 0 .837-.305 1.486-.917 1.947-.601.451-1.411.677-2.431.677Z"/><path fill="#000" stroke="#000" stroke-miterlimit="10" stroke-width=".354" d="m1.382 9.09 24.4 14.017a1.013 1.013 0 0 1 .508.875 1.005 1.005 0 0 1-.509.874L1.45 38.831a.854.854 0 0 1-1.159-.308.843.843 0 0 1-.115-.42V26.68a1.004 1.004 0 0 1 .626-.932c.123-.051.255-.077.388-.077h3.833a1.017 1.017 0 0 1 .937.623c.05.122.077.253.077.386v.963a1.009 1.009 0 0 0 .51.872 1.021 1.021 0 0 0 1.013.002l6.374-3.66a1.011 1.011 0 0 0 .508-.875 1.005 1.005 0 0 0-.508-.875L7.56 19.443a1.019 1.019 0 0 0-1.387.369.996.996 0 0 0-.136.505v.963a1.007 1.007 0 0 1-1.014 1.009H1.19c-.269 0-.527-.106-.717-.295a1.006 1.006 0 0 1-.297-.714V9.784a.797.797 0 0 1 .401-.694.808.808 0 0 1 .805 0Z"/><path fill="#000" stroke="#000" stroke-miterlimit="10" stroke-width=".354" d="m16.73.284 24.399 14.018a1.01 1.01 0 0 1 .508.874 1.005 1.005 0 0 1-.508.875L16.798 30.026a.854.854 0 0 1-1.16-.308.843.843 0 0 1-.115-.421V17.874a1.006 1.006 0 0 1 .627-.932c.123-.05.255-.077.388-.077h3.832a1.02 1.02 0 0 1 .938.623c.05.123.077.254.077.386v.963a1.01 1.01 0 0 0 .509.873 1.023 1.023 0 0 0 1.014.002l6.374-3.661a1.011 1.011 0 0 0 .508-.875 1.005 1.005 0 0 0-.508-.874l-6.374-3.661a1.017 1.017 0 0 0-1.388.369.998.998 0 0 0-.135.505v.963a1.01 1.01 0 0 1-.298.713 1.02 1.02 0 0 1-.716.296h-3.833a1.02 1.02 0 0 1-.716-.296 1.01 1.01 0 0 1-.299-.713V.978a.798.798 0 0 1 .402-.694.807.807 0 0 1 .805 0Z"/></svg>