<svg xmlns="http://www.w3.org/2000/svg" width="911" height="155" fill="none"><path fill="#000" d="M857.05 154.384c-11.255 0-21.034-2.146-29.335-6.437-8.301-4.362-14.773-10.904-19.416-19.627-4.572-8.723-6.859-19.522-6.859-32.395 0-12.24 2.392-22.793 7.176-31.657 4.784-8.934 11.396-15.723 19.838-20.366 8.442-4.643 18.044-6.964 28.808-6.964 10.341 0 19.521 2.251 27.541 6.753 8.019 4.503 14.245 11.045 18.677 19.627 4.502 8.583 6.753 18.854 6.753 30.813 0 4.291-.035 7.703-.105 10.235h-84.101v-22.16h63.735l-12.029 4.116c0-5.768-.844-10.587-2.533-14.456-1.618-3.94-4.01-6.894-7.175-8.864-3.166-1.97-7-2.955-11.502-2.955-4.713 0-8.864 1.161-12.452 3.482-3.517 2.252-6.261 5.628-8.23 10.13-1.9 4.503-2.85 9.92-2.85 16.25v10.87c0 6.472.985 11.959 2.955 16.461 1.97 4.502 4.784 7.914 8.442 10.236 3.658 2.251 7.984 3.376 12.979 3.376 5.487 0 10.025-1.407 13.612-4.22 3.588-2.885 5.839-6.93 6.754-12.136h31.973c-.985 8.161-3.764 15.231-8.336 21.21-4.503 5.98-10.517 10.588-18.045 13.824-7.527 3.236-16.285 4.854-26.275 4.854ZM759.904.003h31.973V151.32h-31.973V.003Zm-54.408 154.378c-6.05 0-11.467-1.055-16.25-3.165-4.714-2.111-8.723-5.276-12.03-9.497-3.306-4.291-5.768-9.568-7.386-15.829l3.376.95v24.481H641.55V39.996h31.973v24.903l-3.588.633c1.618-5.98 4.08-11.08 7.387-15.3 3.376-4.292 7.492-7.563 12.346-9.814 4.854-2.322 10.306-3.483 16.356-3.483 9.075 0 16.953 2.357 23.637 7.07 6.683 4.714 11.818 11.502 15.406 20.366 3.587 8.794 5.381 19.24 5.381 31.34 0 12.03-1.829 22.476-5.487 31.34-3.658 8.794-8.899 15.547-15.723 20.26-6.753 4.714-14.667 7.07-23.742 7.07Zm-9.919-24.375c4.784 0 8.793-1.407 12.029-4.221 3.307-2.814 5.769-6.789 7.387-11.924 1.688-5.135 2.533-11.185 2.533-18.15 0-6.964-.845-13.014-2.533-18.15-1.618-5.135-4.08-9.11-7.387-11.924-3.236-2.884-7.245-4.326-12.029-4.326-4.713 0-8.758 1.442-12.135 4.327-3.306 2.813-5.804 6.823-7.492 12.029-1.688 5.135-2.533 11.15-2.533 18.044 0 6.965.845 13.015 2.533 18.15 1.688 5.135 4.186 9.11 7.492 11.924 3.377 2.814 7.422 4.221 12.135 4.221ZM641.55.003h31.973v39.993H641.55V.003Zm-80.254 154.381c-6.965 0-13.226-1.372-18.783-4.116-5.487-2.743-9.814-6.647-12.979-11.713-3.096-5.135-4.643-11.114-4.643-17.938 0-10.412 3.06-18.361 9.18-23.848 6.12-5.558 14.949-9.18 26.486-10.869l19.311-2.744c3.869-.562 6.929-1.266 9.18-2.11 2.251-.844 3.904-1.97 4.959-3.377 1.056-1.477 1.583-3.341 1.583-5.592 0-2.322-.633-4.432-1.899-6.332-1.196-1.97-3.025-3.517-5.487-4.643-2.392-1.195-5.312-1.793-8.759-1.793-5.487 0-9.883 1.442-13.19 4.326-3.306 2.814-5.1 6.683-5.381 11.607h-33.029c.282-7.457 2.533-14.07 6.754-19.838 4.291-5.839 10.235-10.376 17.833-13.612 7.597-3.236 16.391-4.854 26.38-4.854 10.482 0 19.346 1.723 26.592 5.17 7.246 3.377 12.698 8.231 16.356 14.563 3.728 6.33 5.592 13.893 5.592 22.687v46.429c0 4.995.352 9.638 1.056 13.929.773 4.221 1.864 6.894 3.271 8.02v3.588h-33.24c-.773-3.025-1.371-6.437-1.793-10.236-.423-3.799-.669-7.809-.739-12.029l5.17-2.216c-1.336 4.994-3.798 9.602-7.386 13.823-3.518 4.15-8.055 7.492-13.612 10.024-5.488 2.463-11.749 3.694-18.783 3.694Zm11.818-23.426c4.502 0 8.477-.985 11.924-2.955 3.447-2.04 6.085-4.854 7.914-8.441 1.9-3.588 2.849-7.668 2.849-12.241V92.759l2.638 1.477a16.73 16.73 0 0 1-6.331 5.17c-2.462 1.197-5.804 2.217-10.025 3.061l-8.125 1.583c-5.416 1.055-9.497 2.673-12.24 4.854-2.673 2.181-4.01 5.241-4.01 9.18 0 3.94 1.442 7.07 4.326 9.392 2.885 2.321 6.578 3.482 11.08 3.482Zm-156.971-90.96h33.978l29.229 95.497h-10.235l28.068-95.497h33.029l-38.516 111.325h-35.561L416.143 39.998Zm-49.981 114.386c-11.045 0-20.753-2.392-29.124-7.176-8.302-4.783-14.738-11.607-19.311-20.471-4.502-8.864-6.753-19.24-6.753-31.129 0-11.889 2.251-22.23 6.753-31.023 4.573-8.864 11.009-15.688 19.311-20.472 8.371-4.783 18.079-7.175 29.124-7.175 11.044 0 20.717 2.392 29.018 7.175 8.301 4.784 14.703 11.608 19.205 20.472 4.573 8.793 6.859 19.134 6.859 31.023s-2.286 22.265-6.859 31.129c-4.502 8.864-10.904 15.688-19.205 20.471-8.301 4.784-17.974 7.176-29.018 7.176Zm0-24.481c4.643 0 8.617-1.267 11.924-3.799 3.306-2.603 5.838-6.437 7.597-11.502 1.759-5.135 2.638-11.467 2.638-18.994 0-11.185-1.934-19.662-5.804-25.43-3.869-5.84-9.321-8.759-16.355-8.759-4.643 0-8.653 1.301-12.03 3.904-3.306 2.533-5.839 6.367-7.597 11.502-1.759 5.065-2.639 11.326-2.639 18.783 0 7.457.88 13.753 2.639 18.888 1.758 5.136 4.291 9.005 7.597 11.608 3.377 2.532 7.387 3.799 12.03 3.799ZM217.513.002h33.134V127.74l-5.91-6.859h44.642c28.23 0 24.37 30.438 24.37 30.438h-96.236V.002Z"/><mask id="b" width="149" height="152" x="0" y="0" maskUnits="userSpaceOnUse" style="mask-type:alpha"><path fill="url(#a)" fill-rule="evenodd" d="M44.65 0C69.31 0 89.3 20.043 89.3 44.768v17.014h14.86c24.66 0 44.65 20.044 44.65 44.768 0 24.725-19.99 44.768-44.65 44.768H0V44.768C0 20.043 19.99 0 44.65 0Z" clip-rule="evenodd"/></mask><g mask="url(#b)"><g filter="url(#c)"><circle cx="65.281" cy="80.767" r="100.733" fill="#4B73FF"/></g><g filter="url(#d)"><ellipse cx="76.349" cy="25.488" fill="#FF66F4" rx="129.012" ry="100.733"/></g><g filter="url(#e)"><ellipse cx="97.393" cy="6.54" fill="#FF0105" rx="100.733" ry="88.465"/></g><g filter="url(#f)"><circle cx="78.143" cy="25.468" r="60.581" fill="#FE7B02"/></g></g><defs><filter id="c" width="291.756" height="291.756" x="-80.597" y="-65.111" color-interpolation-filters="sRGB" filterUnits="userSpaceOnUse"><feFlood flood-opacity="0" result="BackgroundImageFix"/><feBlend in="SourceGraphic" in2="BackgroundImageFix" result="shape"/><feGaussianBlur result="effect1_foregroundBlur_313_127" stdDeviation="22.572"/></filter><filter id="d" width="348.313" height="291.756" x="-97.808" y="-120.39" color-interpolation-filters="sRGB" filterUnits="userSpaceOnUse"><feFlood flood-opacity="0" result="BackgroundImageFix"/><feBlend in="SourceGraphic" in2="BackgroundImageFix" result="shape"/><feGaussianBlur result="effect1_foregroundBlur_313_127" stdDeviation="22.572"/></filter><filter id="e" width="291.756" height="267.22" x="-48.486" y="-127.071" color-interpolation-filters="sRGB" filterUnits="userSpaceOnUse"><feFlood flood-opacity="0" result="BackgroundImageFix"/><feBlend in="SourceGraphic" in2="BackgroundImageFix" result="shape"/><feGaussianBlur result="effect1_foregroundBlur_313_127" stdDeviation="22.572"/></filter><filter id="f" width="211.451" height="211.451" x="-27.582" y="-80.257" color-interpolation-filters="sRGB" filterUnits="userSpaceOnUse"><feFlood flood-opacity="0" result="BackgroundImageFix"/><feBlend in="SourceGraphic" in2="BackgroundImageFix" result="shape"/><feGaussianBlur result="effect1_foregroundBlur_313_127" stdDeviation="22.572"/></filter><linearGradient id="a" x1="50.077" x2="95.414" y1="26.591" y2="151.261" gradientUnits="userSpaceOnUse"><stop offset=".025" stop-color="#FF8E63"/><stop offset=".56" stop-color="#FF7EB0"/><stop offset=".95" stop-color="#4B73FF"/></linearGradient></defs></svg>