<svg xmlns="http://www.w3.org/2000/svg" width="88" height="32" fill="none"><path fill="#000" d="m20.066 12.536-8.779-8.78a1.468 1.468 0 0 0-2.076 0l-8.78 8.78c-.277.275-.431.65-.431 1.038v4.894c0 5.627 4.579 10.205 10.205 10.205a10.22 10.22 0 0 0 9.542-6.579.28.28 0 0 0-.264-.378h-2.6a.28.28 0 0 0-.248.147 7.284 7.284 0 0 1-6.699 3.869c-3.92-.145-7-3.418-7-7.342v-4.207l7.312-7.313 7.312 7.313v2.205h-5.844v-3.206a.282.282 0 0 0-.282-.281H9.061a.282.282 0 0 0-.282.281v4.674c0 .81.658 1.468 1.469 1.468h8.78a1.47 1.47 0 0 0 1.469-1.468v-4.282c0-.388-.156-.763-.43-1.038ZM32.635 24.32c3.615 0 6.492-2.829 6.492-6.468 0-3.665-2.877-6.469-6.492-6.469-3.59 0-6.493 2.804-6.493 6.469 0 3.64 2.902 6.468 6.493 6.468Zm0-2.583c-2.164 0-3.837-1.647-3.837-3.885 0-2.239 1.673-3.886 3.837-3.886s3.836 1.648 3.836 3.886c0 2.238-1.672 3.885-3.836 3.885Zm14.133-10.354c-1.673 0-3 .615-3.812 1.894v-1.574H40.3V24h2.656v-6.591c0-2.509 1.377-3.542 3.123-3.542 1.672 0 2.755.984 2.755 2.853V24h2.656v-7.55c0-3.197-1.968-5.067-4.722-5.067Zm16.091-4.599v6.665c-.934-1.279-2.385-2.066-4.304-2.066-3.344 0-6.124 2.804-6.124 6.469 0 3.64 2.78 6.468 6.124 6.468 1.919 0 3.37-.787 4.304-2.09V24h2.656V6.784H62.86Zm-3.886 15.003c-2.213 0-3.885-1.648-3.885-3.935 0-2.288 1.672-3.935 3.885-3.935 2.214 0 3.886 1.647 3.886 3.935 0 2.287-1.672 3.935-3.886 3.935Zm10.499-2.804h9.788c.05-.344.099-.738.099-1.107 0-3.541-2.509-6.493-6.173-6.493-3.862 0-6.493 2.829-6.493 6.469 0 3.689 2.632 6.468 6.69 6.468 2.41 0 4.254-1.009 5.386-2.681l-2.19-1.279c-.59.86-1.696 1.525-3.172 1.525-1.968 0-3.517-.984-3.935-2.902Zm-.025-2.164c.37-1.845 1.722-3.025 3.714-3.025 1.599 0 3.148.91 3.517 3.025h-7.23Zm13.675-3.05v-2.066h-2.656V24h2.656v-6.198c0-2.754 2.042-3.566 3.788-3.443v-2.877c-1.55 0-3.05.615-3.788 2.287Z"/></svg>